<?xml version="1.0" encoding="UTF-8"?>
<svg id="_レイヤー_2" data-name="レイヤー 2" xmlns="http://www.w3.org/2000/svg" viewBox="0 0 396.82 59.69">
  <defs>
    <style>
      .cls-1 {
        fill: #fff;
      }
    </style>
  </defs>
  <g id="design">
    <g>
      <path class="cls-1" d="m93.26,10.29l6.56,2.06c.51.17.77.51.77.99,0,.52-.63.98-1.89,1.39-.32.52-.67,1.01-1.02,1.45h8.03l3.13-2.7,4.74,3.67c.6.43.9.94.9,1.54,0,.46-.62.8-1.85,1.02-4.55,6.61-9.52,12.02-14.91,16.24-.61.43-1.18.84-1.76,1.23h15.81l1.53-4.11,4.89,3.41c.84.64,1.27,1.22,1.27,1.71,0,.59-.55,1.24-1.65,1.96v15.29l-6,1.36v-3.12h-16.5v2.23l-6,1.39v-16.37c-2.48,1.27-5.14,2.41-7.99,3.42l-.34-1.03c5.07-2.87,9.48-6.31,13.23-10.33.39-.43.82-.89,1.27-1.33-.78-.31-1.29-1.07-1.55-2.28-.36-2.36-1.2-4.2-2.53-5.54-3.33,3.66-6.46,6.44-9.41,8.35l-.68-.77c4.32-5.01,8.31-12.05,11.93-21.1Zm2.06,41.89h15v-13.5h-15v13.5Zm-2.57-30.02c1.36.17,2.65.56,3.91,1.15,1.66.9,2.68,2.05,3.02,3.49,2.01-2.68,4.03-5.73,6.04-9.13h-9.12c-1.29,1.6-2.57,3.1-3.85,4.48Z"/>
      <path class="cls-1" d="m134.32,37.17h18v16.5h-18v-16.5Zm22.64-15h-10.64v-6.78c1.27-.58,1.91-1.13,1.91-1.7,0-.62-.5-1.02-1.5-1.17l-6.41-.68v10.33h-17.02l.56,1.5h16.46v12h-5.71l-6.29-3.76v27.07l6-1.07v-2.75h18v2.88l6-.99v-18.09c1.04-.73,1.55-1.35,1.55-1.88s-.4-1.11-1.22-1.74l-4.63-3.33-1.71,3.65h-5.99v-12h18v-1.5l-4.55-3.92-2.81,3.92Z"/>
      <path class="cls-1" d="m200.1,10.68l5.1,3.39c.88.63,1.31,1.19,1.31,1.68,0,.59-.53,1.22-1.7,1.85v6.76l-.39.11,4.89,3.62v1.6h-18.35l-4.11,6.32,11.96-.22v-.04c-1.07-1.25-2.44-2.38-4.1-3.43l.47-1.04c4.55.93,7.74,2.09,9.57,3.42,1.49,1.13,2.24,2.3,2.24,3.46,0,2.57-.9,3.84-2.69,3.84-.91,0-1.86-.74-2.84-2.22-.36-.82-.82-1.65-1.36-2.43l-10.85,2.74,5.47.56c1.05.16,1.58.52,1.58,1.14s-.66,1.26-1.97,1.88v2.53h4.76l2.79-3.7,4.45,3.7v1.5h-12v7.5h6.85l3.21-4.14,4.94,4.14v1.5h-37.04l-.57-1.5h15.12v-7.5h-10.21l-.56-1.5h10.77v-5.45l-6.6,1.66c-.43,1.39-.79,2.08-1.11,2.08-.51,0-.9-.46-1.18-1.4l-2.03-6.72,5.89-.11.97-6.56h-6.43v1.61c0,6.87-.77,12.11-2.29,15.74-1.69,4.21-4.09,7.74-7.16,10.6l-.47-1c1.47-3.68,2.54-7.38,3.15-11.06.52-3.46.77-8.21.77-14.28V10.97l6.44,3.71h21.89l1.46-4Zm-23.79,17.5h25.54l2.67-3.56-5.7,1.31v-2.25h-22.5v4.5Zm0-12v6h22.5v-6h-22.5Z"/>
      <path class="cls-1" d="m220.64,14.3c2.06,1.37,3.34,3.45,3.87,6.32.34,1.35,1.15,2.02,2.39,2.02,1.71,0,2.65-1.14,2.87-3.44,0-1.95-.97-3.48-2.92-4.58-1.85-.9-3.79-1.35-5.84-1.35l-.37,1.04Zm9.34-1.82c2.14,1.42,3.49,3.65,4.02,6.72.34,1.49,1.14,2.24,2.4,2.24,1.84,0,2.88-1.16,3.12-3.49,0-2.12-1.02-3.81-3.08-5.06-1.94-.97-3.98-1.46-6.09-1.46l-.37,1.06Zm10.1,11.19h-19.05c-.11-1.47-.58-3-.58-3h-1.28c-.44,2.61-1.18,4.19-2.21,4.75-.59.17-1.35.68-2.31,1.54-.59.56-.89,1.23-.92,2.01.11,2.57,1.32,3.85,3.66,3.85.93,0,1.78-.53,2.57-1.58.72-.93,1.13-2.61,1.24-5.04,0-.35-.02-.69-.06-1.04h28.5l-2.01,5.77-4.66-3.53-1.9,2.26h-19.23l.57,1.5h18.11l-3.51,5.22-5.18-.53v4.31h-18.31l.59,1.5h17.73v9h-6v1.25c1.54.31,2.55.7,3.02,1.14.61.68.99,1.68,1.09,3.03.09,1.15.52,1.72,1.29,1.72,2.12,0,3.74-.41,4.83-1.24,1.18-.87,1.77-1.95,1.77-3.25v-11.65h18v-1.5l-5.11-4.31-3.14,4.31h-9.76v-1.83s2.26-1.06,1.5-1.63v-.09l6.95-3.82c1.73,0,2.61-.26,2.61-.78,0-.19-.05-.36-.16-.53l5.84-4.82c1.32-.24,1.98-.7,1.98-1.4,0-.49-.24-.92-.73-1.25-.06,0-1.66-1.28-4.79-3.86l-1.26,3.51h-7.19l7.55-7.15c1.36-.17,2.04-.6,2.04-1.26,0-.62-.41-1.11-1.21-1.46l-6.3-2.61c-1.22,3.61-2.74,7.63-4.58,12.47Z"/>
      <path class="cls-1" d="m272.36,11.35l5.34,4.32c.33.28.5.64.5,1.06,0,.56-.51.92-1.52,1.05-2.03,4.26-4.04,8.23-6.04,11.94,2.33,1.62,4.06,3.38,5.2,5.29.43.7.76,1.43,1.02,2.17h17.99l3.07-4.91,4.4,4.07v.85h-9v12.46s1.47,1.62,2.48,1.04h1.46c.44.58.81-.41,1.09-2.39l.53-5.11h1.95v5.33c0,2.09,1.23,3.37,3.68,3.86-.59,3.86-1.86,5.8-3.83,5.8h-8.19c-2.45,0-3.66-1.27-3.66-3.81v-15.69h-3v2.86c0,2.92-.37,5.45-1.11,7.62-.96,2.7-2.55,4.88-4.72,6.51-2.22,1.57-5.46,2.9-9.71,4.02l-.56-1.05c3.99-2.19,6.79-4.8,8.4-7.83,1.13-2.17,1.7-5.28,1.7-9.27v-4.36h-3.1c.4,1.49.6,3.13.6,4.89,0,1.98-.34,3.5-1.05,4.53-.94,1.47-2.75,2.2-5.45,2.2-.51,0-.87-.59-1.11-1.77-.17-1.22-.8-2.06-1.9-2.51v14.16l-6,.85V11.77l5.73,2.91h3.31l1.51-3.32Zm-6.04,4.82v27h4.06c0-5.51-.94-10.04-2.81-13.6.86-5.4,1.44-9.87,1.71-13.4h-2.96Zm18-4.87l6.38.68c1.04.13,1.57.5,1.57,1.14,0,.55-1.95,1.66-1.95,1.66v4.38h5.95l1.34-3.07c3.16,2.57,4.77,3.86,4.84,3.86.54.36.8.77.8,1.26,0,.7-.7,1.16-2.07,1.42l-5.22,3.99,1.86,1.56v1.48h-18.88l-.59-1.5h11.72l2.99-3.88,1.67,1.45,1.2-5.07h-15.92s.16,1.14.16,1.71c-.04,1.42-.37,2.6-.99,3.54-.77,1.04-1.54,1.57-2.3,1.57-1.66,0-2.69-.95-3.07-2.87,0-.84.23-1.65.69-2.45.87-.63,1.61-1.39,2.23-2.27.52-.86.88-2.23.88-2.23h1.32s.54.7.73,1.5h4.68v-7.87Z"/>
      <path class="cls-1" d="m344.57,20.43l5.75,4.74v1.5h-18.63s3.03,9.73,5.85,13.87c2.33,3.45,6.44,7.07,12.35,10.9l-.41,1.19c-1.98.83-3.32,2.39-4.02,4.68-5.14-3.58-8.82-7.7-11.04-12.35-1.7-3.24-2.87-7.45-3.5-12.67-.56,5.84-2,10.56-4.32,14.17-3.11,4.93-9.23,8.89-18.37,11.89l-.56-1.04c6.46-4.03,10.98-8.55,13.56-13.55,2-4,3.07-9.45,3.17-17.1h-15.8l-.51-1.5h16.75v-13.53l7.34,1.04c.67.24.99.63.99,1.2s-2.33,2.04-2.33,2.04v9.25h10.29l3.46-4.74Z"/>
      <path class="cls-1" d="m370.71,12.48c2.15,1.42,3.49,3.65,4.02,6.72.34,1.49,1.15,2.24,2.39,2.24,1.84,0,2.88-1.16,3.13-3.49,0-2.12-1.03-3.81-3.09-5.06-1.93-.97-3.97-1.46-6.09-1.46l-.37,1.06Zm-9.33,1.82c2.05,1.37,3.34,3.45,3.87,6.32.35,1.35,1.14,2.02,2.39,2.02,1.7,0,2.66-1.14,2.86-3.44,0-1.95-.97-3.48-2.91-4.58-1.84-.9-3.79-1.35-5.85-1.35l-.37,1.04Zm18.94,9.37h-17.15c-.1-1.01-.26-2.01-.51-3h-2.75c-.43,2.61-1.18,4.19-2.2,4.75-.59.17-1.36.68-2.31,1.54-.59.56-.89,1.23-.93,2.01.11,2.57,1.32,3.85,3.66,3.85.92,0,1.78-.53,2.57-1.58.72-.93,1.13-2.61,1.23-5.04,0-.35-.01-.69-.05-1.04h28.48l-2.01,5.77-4.65-3.53-1.9,2.26h-18.96l.56,1.5h18.11l-3.51,5.22-5.18-.53v4.31h-18.3l.56,1.5h17.73v9h-6v1.25c1.55.31,2.57.7,3.03,1.14.62.68.98,1.68,1.08,3.03.1,1.15.53,1.72,1.29,1.72,2.12,0,3.74-.41,4.82-1.24,1.17-.87,1.78-1.95,1.78-3.25v-11.65h18v-1.5l-5.12-4.31-3.14,4.31h-9.75v-1.73c1-.52,1.5-1.04,1.5-1.59v-.09l5.58-3.74c1.56,0,2.35-.26,2.35-.76,0-.18-.05-.35-.14-.52l5.26-4.71c1.17-.23,1.78-.69,1.78-1.37,0-.48-.23-.9-.67-1.22-.05,0-1.5-1.25-4.31-3.77l-1.13,3h-6.47l6.8-6.56c1.22-.17,1.84-.59,1.84-1.23,0-.6-.36-1.09-1.08-1.42l-5.67-2.55c-1.09,3.53-2.47,7.46-4.13,11.76Z"/>
    </g>
    <g>
      <polygon class="cls-1" points="58.95 14.53 58.95 52.93 48.94 52.93 48.94 14.53 32 0 15.15 14.53 15.15 43.14 5.18 14.53 0 14.53 0 58.41 5.18 58.41 5.18 28.63 15.15 58.41 20.37 58.41 20.37 16.82 32 7.31 43.85 16.95 43.85 58.41 64.16 58.41 64.16 14.53 58.95 14.53"/>
      <polygon class="cls-1" points="21.86 58.41 42.22 58.41 42.22 34.2 32.44 34.2 32.44 39.5 37 39.5 37 52.93 27.03 52.93 27.03 23.05 37 23.05 37 31.91 42.22 31.91 42.22 17.6 21.86 17.6 21.86 58.41"/>
    </g>
  </g>
</svg>