<?xml version="1.0" encoding="UTF-8"?><svg xmlns="http://www.w3.org/2000/svg" width="146.15" height="100" viewBox="0 0 146.15 100"><defs><style>.cls-1{fill:#fff;}.cls-2{fill:none;stroke:#fff;stroke-linecap:round;stroke-linejoin:round;stroke-width:2.93px;}.cls-3{isolation:isolate;}.cls-4{mix-blend-mode:multiply;opacity:.6;}</style></defs><g class="cls-3"><g id="_レイヤー_2"><g id="_レイアウト"><g><g class="cls-4"><rect width="146.15" height="100" rx="12" ry="12"/></g><g><path id="icon" class="cls-2" d="M101.7,54.88c-.08-1.86-1.61-3.19-3.48-3.19h-.07c-1.36,0-2.53,.65-3.1,1.79l-.05-.91c-.09-2.26-1.96-3.85-4.22-3.85h-.08c-1.88,0-3.46,.97-4.01,2.67l-.06-1.61c-.09-2.26-1.96-4.17-4.22-4.17h-.08c-2.27,0-4.13,1.68-4.22,3.95l-.03,.77-.94-22.3c-.09-2.26-1.96-3.87-4.22-3.87h-.08c-2.27,0-4.13,1.61-4.22,3.87l-1.57,37.5-10.43-8.8c-1.5-1.26-3.67-1.33-5.23-.14l-.06,.03c-1.78,1.36-2.17,4.02-.88,5.85l14.36,20.61c2.79,3.98,7.34,6.46,12.19,6.46h14.51c5.92,0,10.66-4.97,10.41-10.89l-.23-23.8Z"/><path class="cls-1" d="M107.88,21.91l-6.33-6.33c-.66-.66-1.72-.66-2.37,0-.66,.66-.66,1.98,0,2.63l3.55,3.81h-15.61c-1.31-6.9-7.21-11.75-14.28-11.75s-12.97,4.86-14.28,11.75h-15.15l3.55-3.81c.66-.66,.66-1.85,0-2.5-.66-.66-1.72-.72-2.37-.06l-6.33,6.3c-.66,.66-.66,1.7,0,2.36l6.33,6.32c.33,.33,.76,.49,1.19,.49s.86-.17,1.19-.49c.66-.66,.66-1.5,0-2.15l-3.38-3.16h14.71c.15,3.78,1.92,7.49,4.91,10.13,.32,.28,.72,.31,1.11,.31,.46,0,.93-.25,1.26-.62,.61-.69,.55-1.78-.15-2.4-2.41-2.13-3.79-5.2-3.79-8.41,0-6.17,5.02-11.2,11.19-11.2s11.19,5.02,11.19,11.19c0,3.2-1.38,6.25-3.78,8.38-.69,.61-.76,1.67-.15,2.37,.61,.69,1.68,.98,2.37,.37,2.98-2.64,4.75-6.33,4.9-10.11h15.17l-3.38,3.16c-.66,.66-.66,1.61,0,2.26,.33,.33,.76,.44,1.19,.44s.86-.19,1.19-.52l6.33-6.34c.31-.32,.49-.75,.49-1.19s-.18-.88-.49-1.19Z"/></g></g></g></g></g></svg>