<?xml version="1.0" encoding="UTF-8"?><svg id="_レイヤー_2" xmlns="http://www.w3.org/2000/svg" width="16.33" height="16.33" viewBox="0 0 16.33 16.33"><defs><style>.cls-1{fill:#fff;stroke:#fff;stroke-linejoin:round;stroke-width:.33px;}</style></defs><g id="_レイアウト"><path class="cls-1" d="M13.88,7.69c0-.11,.09-.19,.19-.19s.19,.09,.19,.19V15.98c0,.11-.09,.19-.19,.19H.36c-.11,0-.19-.09-.19-.19V2.26c0-.11,.09-.19,.19-.19H8.64c.11,0,.19,.09,.19,.19s-.09,.19-.19,.19H.55V15.78H13.88V7.69Zm-6.16,.66L15.51,.55h-4.96c-.11,0-.19-.09-.19-.19s.09-.19,.19-.19h5.43c.11,0,.19,.09,.19,.19V5.78c0,.11-.09,.19-.19,.19s-.19-.09-.19-.19V.82l-7.8,7.8-.27-.27Z"/></g></svg>